<svg width="140" height="27" viewBox="0 0 140 27" fill="none" xmlns="http://www.w3.org/2000/svg">
<path d="M44.5587 7.17152H39.2163V4.27832H53.1018V7.17152H47.7861V22.1023H44.5587V7.17152Z" fill="black"/>
<path d="M51.1638 15.515C51.1638 11.589 54.3364 8.61816 58.5398 8.61816C62.7431 8.61816 65.9437 11.589 65.9437 15.5405C65.9437 15.9021 65.917 16.2893 65.8622 16.6254H54.4179C54.8792 18.5369 56.5062 19.8026 58.6761 19.8026C60.2764 19.8026 61.6588 19.1315 62.3647 18.123H65.7271C64.6148 20.6801 61.9035 22.4106 58.6213 22.4106C54.3364 22.4106 51.1638 19.4398 51.1638 15.5138V15.515ZM54.4447 14.2492H62.6896C62.2284 12.441 60.6013 11.2274 58.5398 11.2274C56.4782 11.2274 54.9327 12.4155 54.4447 14.2492Z" fill="black"/>
<path d="M67.5146 15.515C67.5146 11.589 70.6872 8.61816 74.9186 8.61816C78.5257 8.61816 81.3734 10.7881 81.9429 13.8876H78.7155C78.2275 12.4155 76.7355 11.4082 74.9186 11.4082C72.4774 11.4082 70.6337 13.191 70.6337 15.515C70.6337 17.839 72.4774 19.6218 74.9186 19.6218C76.7355 19.6218 78.2275 18.6145 78.7155 17.1424H81.9429C81.3734 20.2419 78.5257 22.4119 74.9186 22.4119C70.6885 22.4119 67.5146 19.441 67.5146 15.515Z" fill="black"/>
<path d="M83.6235 3.50488H86.6611V10.6857C87.7734 9.34227 89.3737 8.61896 91.3257 8.61896C94.6065 8.61896 96.8044 10.6857 96.8044 13.8107V22.1032H93.7669V14.767C93.7669 12.7525 92.4112 11.409 90.3229 11.409C88.1263 11.409 86.6611 12.7779 86.6611 14.8192V22.1032H83.6235V3.50488Z" fill="black"/>
<path d="M99.252 3.49707H102.277V22.1015H99.252V3.49707Z" fill="black"/>
<path d="M104.857 8.92763H107.894V10.6072C109.007 9.31598 110.606 8.61816 112.559 8.61816C115.84 8.61816 118.038 10.6849 118.038 13.8099V22.1024H115V14.7662C115 12.7517 113.645 11.4082 111.556 11.4082C109.36 11.4082 107.896 12.7771 107.896 14.8184V22.1024H104.858V8.92884L104.857 8.92763Z" fill="black"/>
<path d="M119.555 18.2276H122.647C122.647 19.2349 123.651 19.906 125.115 19.906C126.471 19.906 127.367 19.3114 127.367 18.4849C127.367 16.1087 119.773 17.4254 119.773 12.7507C119.773 10.1936 121.915 8.61719 124.98 8.61719C128.046 8.61719 130.241 10.2446 130.241 12.6208H127.149C127.149 11.7167 126.255 11.0966 124.952 11.0966C123.65 11.0966 122.837 11.639 122.837 12.44C122.837 14.7385 130.458 13.4728 130.458 18.1742C130.458 20.7313 128.315 22.4109 125.089 22.4109C121.863 22.4109 119.556 20.7058 119.556 18.2264L119.555 18.2276Z" fill="black"/>
<path d="M131.782 12.2089C131.782 11.0718 132.406 10.1421 133.49 9.59967C132.568 9.08268 132.026 8.25623 132.026 7.22347C132.026 5.49289 133.627 4.2793 135.877 4.2793C138.127 4.2793 139.755 5.49289 139.755 7.22347C139.755 8.25623 139.186 9.0839 138.291 9.59967C139.349 10.1421 140 11.0718 140 12.2089C140 14.0426 138.291 15.3339 135.878 15.3339C133.465 15.3339 131.783 14.0426 131.783 12.2089H131.782ZM137.857 11.9759C137.857 11.1239 137.016 10.5038 135.877 10.5038C134.738 10.5038 133.897 11.1239 133.897 11.9759C133.897 12.8278 134.738 13.448 135.877 13.448C137.016 13.448 137.857 12.8278 137.857 11.9759ZM137.667 7.45526C137.667 6.70648 136.881 6.13852 135.877 6.13852C134.873 6.13852 134.087 6.70648 134.087 7.45526C134.087 8.20405 134.873 8.79871 135.877 8.79871C136.881 8.79871 137.667 8.20405 137.667 7.45526Z" fill="url(#paint0_linear_59_328)"/>
<path d="M33.4317 13.3483L25.4914 0.248797L22.3799 5.38107L28.7442 15.8859C29.501 17.1359 29.5023 18.6262 28.7442 19.875C28.3722 20.4879 27.8447 20.9939 27.2178 21.3386C26.5897 21.6845 25.8634 21.8665 25.1168 21.8665L18.4174 21.8689L21.8677 16.1784L18.8506 11.2002L22.3799 5.37986L19.1182 1.05236e-05H9.57238C7.87778 -0.00241666 6.22269 0.415059 4.78547 1.20511C3.34953 1.99394 2.1442 3.14928 1.2969 4.54491C-0.432089 7.39563 -0.432089 10.7985 1.29563 13.6493L9.23601 26.7488L12.3474 21.6165L5.98315 11.1117C5.22632 9.86165 5.22505 8.37136 5.98315 7.12379C6.3552 6.51093 6.88269 6.00486 7.50956 5.6602C8.13771 5.31433 8.86396 5.13229 9.6106 5.13229L16.31 5.12986L12.8596 10.8204L15.8768 15.7985L12.3474 21.6189L15.6092 27H25.155C26.8496 27.0024 28.5047 26.5849 29.9419 25.7949C31.3778 25.0061 32.5832 23.8507 33.4305 22.4551C35.1595 19.6044 35.1595 16.2015 33.4317 13.3507V13.3483Z" fill="url(#paint1_linear_59_328)"/>
<defs>
<linearGradient id="paint0_linear_59_328" x1="131.782" y1="9.80659" x2="140" y2="9.80659" gradientUnits="userSpaceOnUse">
<stop stop-color="#FA4810"/>
<stop offset="1" stop-color="#F57F59"/>
</linearGradient>
<linearGradient id="paint1_linear_59_328" x1="0" y1="13.5" x2="34.7274" y2="13.5" gradientUnits="userSpaceOnUse">
<stop stop-color="#FA4810"/>
<stop offset="1" stop-color="#F57F59"/>
</linearGradient>
</defs>
</svg>
