<svg width="105" height="104" viewBox="0 0 105 104" fill="none" xmlns="http://www.w3.org/2000/svg">
<circle cx="52.5" cy="52" r="52" fill="#D9D9D9"/>
<path d="M73.4859 35.1651C68.4613 31.0892 60.5126 30.3983 60.1724 30.3734C59.6448 30.3287 59.1418 30.6269 58.9249 31.119C58.9052 31.1489 58.7326 31.5515 58.5403 32.1778C61.8637 32.7444 65.9465 33.8827 69.6398 36.194C70.2315 36.5618 70.414 37.3472 70.0491 37.9437C69.8075 38.3363 69.3982 38.5501 68.9741 38.5501C68.7473 38.5501 68.5156 38.4855 68.3085 38.3562C61.9574 34.3847 54.0285 34.1859 52.4999 34.1859C50.9713 34.1859 43.0374 34.3847 36.6913 38.3562C36.0996 38.729 35.3205 38.5451 34.9556 37.9486C34.5858 37.3472 34.7683 36.5668 35.36 36.194C39.0532 33.8877 43.136 32.7444 46.4595 32.1827C46.2672 31.5515 46.0946 31.1538 46.0798 31.119C45.8579 30.6269 45.3599 30.3188 44.8274 30.3734C44.4871 30.3983 36.5385 31.0892 31.4448 35.2198C28.787 37.7001 23.4666 52.1944 23.4666 64.7252C23.4666 64.9489 23.5257 65.1627 23.6342 65.3565C27.3028 71.858 37.3175 73.558 39.6006 73.6325C39.6104 73.6325 39.6252 73.6325 39.64 73.6325C40.0443 73.6325 40.424 73.4387 40.6607 73.1106L42.9684 69.9096C36.7406 68.2892 33.5602 65.5354 33.3777 65.3714C32.855 64.9092 32.8057 64.1039 33.2692 63.577C33.7278 63.0502 34.5266 63.0004 35.0493 63.4627C35.1233 63.5323 40.9812 68.5427 52.4999 68.5427C64.0383 68.5427 69.8962 63.5124 69.9554 63.4627C70.4781 63.0054 71.2719 63.0501 71.7355 63.582C72.194 64.1089 72.1447 64.9092 71.622 65.3714C71.4396 65.5354 68.2591 68.2892 62.0314 69.9096L64.3391 73.1106C64.5757 73.4387 64.9554 73.6325 65.3598 73.6325C65.3745 73.6325 65.3893 73.6325 65.3992 73.6325C67.6822 73.558 77.6969 71.858 81.3656 65.3565C81.474 65.1627 81.5332 64.9489 81.5332 64.7252C81.5332 52.1944 76.2127 37.7001 73.4859 35.1651ZM44.2948 59.6353C41.854 59.6353 39.8767 57.3588 39.8767 54.5455C39.8767 51.7321 41.854 49.4556 44.2948 49.4556C46.7356 49.4556 48.7129 51.7321 48.7129 54.5455C48.7129 57.3588 46.7356 59.6353 44.2948 59.6353ZM60.705 59.6353C58.2641 59.6353 56.2868 57.3588 56.2868 54.5455C56.2868 51.7321 58.2641 49.4556 60.705 49.4556C63.1458 49.4556 65.1231 51.7321 65.1231 54.5455C65.1231 57.3588 63.1458 59.6353 60.705 59.6353Z" fill="#111827"/>
</svg>
