<svg width="942" height="220" viewBox="0 0 942 220" fill="none" xmlns="http://www.w3.org/2000/svg">
<path opacity="0.41" d="M906.854 362.382L691.466 6.7544L607.069 146.086L779.702 431.273C800.233 465.209 800.263 505.667 779.702 539.569C769.611 556.207 755.301 569.946 738.296 579.303C721.256 588.693 701.556 593.635 681.303 593.635L499.582 593.701L593.174 439.213L511.332 304.066L607.069 146.053L518.59 0.000285699H259.656C213.689 -0.065608 168.794 11.268 129.808 32.7164C90.8578 54.1318 58.1626 85.4973 35.1792 123.386C-11.7206 200.778 -11.7206 293.161 35.1447 370.552L250.531 726.182L334.931 586.848L162.296 301.66C141.766 267.726 141.732 227.267 162.296 193.398C172.388 176.76 186.697 163.021 203.701 153.664C220.74 144.274 240.439 139.332 260.693 139.332L442.417 139.266L348.825 293.754L430.666 428.901L334.931 586.914L423.408 733H682.339C728.308 733.066 773.204 721.73 812.192 700.283C851.139 678.866 883.834 647.501 906.818 609.614C953.721 532.222 953.721 439.84 906.854 362.448V362.382Z" fill="#4B5563"/>
</svg>
