<svg width="25" height="24" viewBox="0 0 25 24" fill="none" xmlns="http://www.w3.org/2000/svg">
<g clip-path="url(#clip0_53_536)">
<g clip-path="url(#clip1_53_536)">
<g clip-path="url(#clip2_53_536)">
<path d="M23.18 0H2.77998C1.77998 0 0.97998 0.803348 0.97998 1.70711V22.2929C0.97998 23.1967 1.77998 24 2.77998 24H23.18C24.18 24 24.98 23.1967 24.98 22.2929V1.70711C24.98 0.803348 24.18 0 23.18 0ZM8.07998 20.4854H4.57998V9.03765H8.07998V20.4854ZM6.37998 7.43096C5.27998 7.43096 4.27998 6.5272 4.27998 5.32217C4.27998 4.11716 5.17998 3.21339 6.37998 3.21339C7.47998 3.21339 8.47998 4.11716 8.47998 5.32217C8.47998 6.5272 7.47998 7.43096 6.37998 7.43096ZM21.48 20.3849H17.98V14.7615C17.98 13.456 17.98 11.6486 16.08 11.6486C14.18 11.6486 13.98 13.1548 13.98 14.5606V20.2845H10.48V9.03765H13.78V10.544H13.88C14.38 9.6402 15.58 8.63595 17.28 8.63595C20.88 8.63595 21.58 11.046 21.58 14.159V20.3849H21.48Z" fill="#FAFAF9"/>
</g>
</g>
</g>
<defs>
<clipPath id="clip0_53_536">
<rect x="0.97998" width="24" height="24" rx="4" fill="white"/>
</clipPath>
<clipPath id="clip1_53_536">
<rect width="24" height="24" fill="white" transform="translate(0.97998)"/>
</clipPath>
<clipPath id="clip2_53_536">
<rect width="24" height="24" fill="white" transform="translate(0.97998)"/>
</clipPath>
</defs>
</svg>
