<svg width="32" height="32" viewBox="0 0 32 32" fill="none" xmlns="http://www.w3.org/2000/svg">
<path d="M29.6 0H2.4C1.06667 0 0 1.07113 0 2.27615V29.7239C0 30.9289 1.06667 32 2.4 32H29.6C30.9333 32 32 30.9289 32 29.7239V2.27615C32 1.07113 30.9333 0 29.6 0ZM9.46667 27.3138H4.8V12.0502H9.46667V27.3138ZM7.2 9.90795C5.73333 9.90795 4.4 8.70293 4.4 7.09623C4.4 5.48954 5.6 4.28452 7.2 4.28452C8.66667 4.28452 10 5.48954 10 7.09623C10 8.70293 8.66667 9.90795 7.2 9.90795ZM27.3333 27.1799H22.6667V19.682C22.6667 17.9414 22.6667 15.5314 20.1333 15.5314C17.6 15.5314 17.3333 17.5397 17.3333 19.4142V27.046H12.6667V12.0502H17.0667V14.0586H17.2C17.8667 12.8536 19.4667 11.5146 21.7333 11.5146C26.5333 11.5146 27.4667 14.728 27.4667 18.8787V27.1799H27.3333Z" fill="white"/>
</svg>
