<svg width="630" height="122" viewBox="0 0 630 122" fill="none" xmlns="http://www.w3.org/2000/svg">
<path d="M200.515 32.2709H176.474V19.2515H238.958V32.2709H215.038V99.4595H200.515V32.2709Z" fill="#0A0300"/>
<path d="M230.236 69.8166C230.236 52.1497 244.513 38.7808 263.428 38.7808C282.343 38.7808 296.746 52.1497 296.746 69.9313C296.746 71.5587 296.626 73.3008 296.379 74.8135H244.88C246.955 83.4149 254.277 89.1109 264.042 89.1109C271.243 89.1109 277.464 86.0909 280.64 81.5526H295.771C290.766 93.0593 278.565 100.847 263.795 100.847C244.513 100.847 230.236 87.478 230.236 69.8111V69.8166ZM245 64.1206H282.102C280.027 55.9834 272.705 50.5223 263.428 50.5223C254.151 50.5223 247.196 55.8688 245 64.1206Z" fill="#0A0300"/>
<path d="M303.818 69.8166C303.818 52.1497 318.095 38.7808 337.136 38.7808C353.368 38.7808 366.183 48.5453 368.745 62.4931H354.222C352.026 55.8687 345.312 51.336 337.136 51.336C326.151 51.336 317.854 59.3584 317.854 69.8166C317.854 80.2747 326.151 88.2972 337.136 88.2972C345.312 88.2972 352.026 83.7644 354.222 77.14H368.745C366.183 91.0878 353.368 100.852 337.136 100.852C318.101 100.852 303.818 87.4834 303.818 69.8166Z" fill="#0A0300"/>
<path d="M376.307 15.7715H389.975V48.0852C394.981 42.0397 402.182 38.7849 410.966 38.7849C425.73 38.7849 435.621 48.0852 435.621 62.1478V99.4639H421.952V66.4512C421.952 57.3856 415.851 51.3401 406.454 51.3401C396.569 51.3401 389.975 57.5003 389.975 66.686V99.4639H376.307V15.7715Z" fill="#0A0300"/>
<path d="M446.637 15.7358H460.248V99.4559H446.637V15.7358Z" fill="#0A0300"/>
<path d="M471.856 40.1734H485.525V47.7316C490.531 41.9209 497.726 38.7808 506.516 38.7808C521.28 38.7808 531.17 48.0811 531.17 62.1436V99.4597H517.502V66.447C517.502 57.3815 511.401 51.336 502.004 51.336C492.119 51.336 485.531 57.4962 485.531 66.6818V99.4597H471.862V40.1788L471.856 40.1734Z" fill="#0A0300"/>
<path d="M537.999 82.0238H551.914C551.914 86.5566 556.432 89.5766 563.02 89.5766C569.121 89.5766 573.152 86.9007 573.152 83.1816C573.152 72.4886 538.979 78.414 538.979 57.3776C538.979 45.8709 548.618 38.7769 562.413 38.7769C576.208 38.7769 586.087 46.1003 586.087 56.7932H572.171C572.171 52.7247 568.146 49.934 562.286 49.934C556.427 49.934 552.769 52.3752 552.769 55.9795C552.769 66.323 587.061 60.627 587.061 81.7835C587.061 93.2902 577.417 100.848 562.9 100.848C548.383 100.848 538.005 93.1755 538.005 82.0184L537.999 82.0238Z" fill="#0A0300"/>
<path d="M593.019 54.9395C593.019 49.8224 595.828 45.6392 600.707 43.1981C596.556 40.8716 594.119 37.1526 594.119 32.5051C594.119 24.7175 601.321 19.2563 611.446 19.2563C621.572 19.2563 628.899 24.7175 628.899 32.5051C628.899 37.1526 626.336 40.8771 622.311 43.1981C627.07 45.6392 630 49.8224 630 54.9395C630 63.1913 622.311 69.002 611.452 69.002C600.593 69.002 593.024 63.1913 593.024 54.9395H593.019ZM620.356 53.891C620.356 50.0573 616.572 47.2666 611.446 47.2666C606.32 47.2666 602.536 50.0573 602.536 53.891C602.536 57.7247 606.32 60.5154 611.446 60.5154C616.572 60.5154 620.356 57.7247 620.356 53.891ZM619.502 33.5482C619.502 30.1787 615.964 27.6228 611.446 27.6228C606.928 27.6228 603.391 30.1787 603.391 33.5482C603.391 36.9177 606.928 39.5937 611.446 39.5937C615.964 39.5937 619.502 36.9177 619.502 33.5482Z" fill="url(#paint0_linear_194_135)"/>
<path d="M150.443 60.0674L114.711 1.11959L100.71 24.2148L129.349 71.4867C132.755 77.1117 132.76 83.818 129.349 89.4375C127.675 92.1954 125.301 94.4727 122.48 96.0237C119.653 97.5801 116.385 98.3993 113.025 98.3993L82.8783 98.4102L98.4048 72.8028L84.8277 50.4011L100.71 24.2094L86.0317 4.73563e-05H43.0757C35.45 -0.010875 28.0021 1.86776 21.5346 5.42298C15.0729 8.97274 9.64891 14.1718 5.83607 20.4521C-1.9444 33.2804 -1.9444 48.5935 5.83034 61.4217L41.562 120.37L55.5635 97.2743L26.9242 50.0024C23.5184 44.3775 23.5127 37.6711 26.9242 32.0571C28.5984 29.2992 30.9721 27.0219 33.793 25.4709C36.6197 23.9145 39.8878 23.0953 43.2477 23.0953L73.3949 23.0844L57.8684 48.6918L71.4455 71.0935L55.5635 97.2852L70.2414 121.5H113.197C120.823 121.511 128.271 119.632 134.739 116.077C141.2 112.527 146.624 107.328 150.437 101.048C158.218 88.2197 158.218 72.9066 150.443 60.0783V60.0674Z" fill="url(#paint1_linear_194_135)"/>
<defs>
<linearGradient id="paint0_linear_194_135" x1="593.019" y1="44.1292" x2="630" y2="44.1292" gradientUnits="userSpaceOnUse">
<stop stop-color="#FA4810"/>
<stop offset="1" stop-color="#F57F59"/>
</linearGradient>
<linearGradient id="paint1_linear_194_135" x1="0" y1="60.75" x2="156.273" y2="60.75" gradientUnits="userSpaceOnUse">
<stop stop-color="#FA4810"/>
<stop offset="1" stop-color="#F57F59"/>
</linearGradient>
</defs>
</svg>
