<svg width="150" height="30" viewBox="0 0 150 30" fill="none" xmlns="http://www.w3.org/2000/svg">
<g clip-path="url(#clip0_53_502)">
<g clip-path="url(#clip1_53_502)">
<path d="M47.7416 7.68433H42.0176V4.58447H56.8947V7.68433H51.1995V23.6816H47.7416V7.68433Z" fill="#FAFAF9"/>
<path d="M54.8181 16.6239C54.8181 12.4174 58.2174 9.23438 62.721 9.23438C67.2245 9.23438 70.6538 12.4174 70.6538 16.6512C70.6538 17.0386 70.6253 17.4534 70.5665 17.8136H58.3048C58.7988 19.8615 60.5422 21.2177 62.8672 21.2177C64.5817 21.2177 66.0629 20.4987 66.8191 19.4181H70.4217C69.23 22.1578 66.325 24.012 62.8084 24.012C58.2174 24.012 54.8181 20.8289 54.8181 16.6225V16.6239ZM58.3334 15.2677H67.1672C66.6731 13.3302 64.9298 12.03 62.721 12.03C60.5122 12.03 58.8562 13.3029 58.3334 15.2677Z" fill="#FAFAF9"/>
<path d="M72.3376 16.6239C72.3376 12.4174 75.7369 9.23438 80.2705 9.23438C84.1353 9.23438 87.1865 11.5593 87.7965 14.8802H84.3386C83.8157 13.3029 82.2172 12.2237 80.2705 12.2237C77.655 12.2237 75.6796 14.1338 75.6796 16.6239C75.6796 19.1139 77.655 21.024 80.2705 21.024C82.2172 21.024 83.8157 19.9448 84.3386 18.3675H87.7965C87.1865 21.6884 84.1353 24.0132 80.2705 24.0132C75.7384 24.0132 72.3376 20.8302 72.3376 16.6239Z" fill="#FAFAF9"/>
<path d="M89.5969 3.75586H92.8512V11.4496C94.0431 10.0102 95.7576 9.23524 97.8491 9.23524C101.364 9.23524 103.719 11.4496 103.719 14.7978V23.6826H100.465V15.8225C100.465 13.664 99.0122 12.2246 96.7748 12.2246C94.4212 12.2246 92.8512 13.6913 92.8512 15.8784V23.6826H89.5969V3.75586Z" fill="#FAFAF9"/>
<path d="M106.342 3.74756H109.583V23.6809H106.342V3.74756Z" fill="#FAFAF9"/>
<path d="M112.347 9.56595H115.601V11.3655C116.793 9.98202 118.506 9.23438 120.599 9.23438C124.114 9.23438 126.469 11.4487 126.469 14.7969V23.6817H123.215V15.8216C123.215 13.6631 121.762 12.2237 119.525 12.2237C117.171 12.2237 115.603 13.6904 115.603 15.8775V23.6817H112.348V9.56723L112.347 9.56595Z" fill="#FAFAF9"/>
<path d="M128.095 19.5303H131.408C131.408 20.6095 132.484 21.3286 134.052 21.3286C135.505 21.3286 136.465 20.6914 136.465 19.8059C136.465 17.26 128.328 18.6708 128.328 13.6621C128.328 10.9224 130.623 9.2334 133.908 9.2334C137.192 9.2334 139.544 10.9771 139.544 13.523H136.231C136.231 12.5543 135.273 11.8899 133.878 11.8899C132.483 11.8899 131.612 12.4711 131.612 13.3293C131.612 15.792 139.776 14.4358 139.776 19.4731C139.776 22.2128 137.48 24.0122 134.024 24.0122C130.567 24.0122 128.096 22.1854 128.096 19.529L128.095 19.5303Z" fill="#FAFAF9"/>
<path d="M141.195 13.0819C141.195 11.8636 141.864 10.8676 143.026 10.2864C142.037 9.73244 141.457 8.84696 141.457 7.74041C141.457 5.88622 143.172 4.58594 145.582 4.58594C147.993 4.58594 149.738 5.88622 149.738 7.74041C149.738 8.84696 149.128 9.73375 148.169 10.2864C149.302 10.8676 150 11.8636 150 13.0819C150 15.0467 148.169 16.4302 145.584 16.4302C142.998 16.4302 141.196 15.0467 141.196 13.0819H141.195ZM147.704 12.8323C147.704 11.9195 146.803 11.2551 145.582 11.2551C144.362 11.2551 143.461 11.9195 143.461 12.8323C143.461 13.7451 144.362 14.4095 145.582 14.4095C146.803 14.4095 147.704 13.7451 147.704 12.8323ZM147.501 7.98877C147.501 7.18651 146.658 6.57796 145.582 6.57796C144.507 6.57796 143.665 7.18651 143.665 7.98877C143.665 8.79103 144.507 9.42818 145.582 9.42818C146.658 9.42818 147.501 8.79103 147.501 7.98877Z" fill="#FF4D22"/>
<path d="M35.8198 14.3027L27.3121 0.267546L23.9786 5.76641L30.7974 17.0216C31.6083 18.3609 31.6095 19.9576 30.7974 21.2956C30.3988 21.9523 29.8336 22.4945 29.1619 22.8638C28.4888 23.2343 27.7107 23.4294 26.9107 23.4294L19.7329 23.432L23.4297 17.335L20.1971 12.0012L23.9786 5.76512L20.4837 0.000987838H10.2561C8.44048 -0.00161272 6.66717 0.445681 5.12729 1.29216C3.58879 2.13734 2.29736 3.37521 1.38954 4.87052C-0.462953 7.92488 -0.462953 11.5709 1.38818 14.6252L9.89571 28.6605L13.2294 23.1615L6.41052 11.9063C5.59962 10.567 5.59826 8.97029 6.41052 7.63362C6.80914 6.97698 7.37431 6.43476 8.04595 6.06548C8.71898 5.6949 9.4971 5.49986 10.2971 5.49986L17.475 5.49726L13.7782 11.5943L17.0108 16.928L13.2294 23.1641L16.7241 28.9295H26.9517C28.7674 28.9322 30.5407 28.4848 32.0807 27.6384C33.619 26.7931 34.9105 25.5553 35.8183 24.06C37.671 21.0057 37.671 17.3597 35.8198 14.3053V14.3027Z" fill="#FF4D22"/>
</g>
</g>
<defs>
<clipPath id="clip0_53_502">
<rect width="150" height="29.05" fill="white"/>
</clipPath>
<clipPath id="clip1_53_502">
<rect width="150" height="29.0476" fill="white" transform="translate(0 0.000976562)"/>
</clipPath>
</defs>
</svg>
