<svg width="441" height="58" viewBox="0 0 441 58" fill="none" xmlns="http://www.w3.org/2000/svg">
<path d="M6 54V2.48H38.48V6.08H10.4V26.48H35.52V30H10.4V54H6ZM43.6563 54V16.08H47.4963L47.9763 21.36C49.9496 19.9733 52.1896 18.7467 54.6963 17.68C57.2563 16.6133 59.7629 15.8133 62.2163 15.28V18.88C60.6696 19.2533 58.9896 19.76 57.1763 20.4C55.4163 21.04 53.7096 21.76 52.0563 22.56C50.4563 23.3067 49.1229 24.08 48.0563 24.88V54H43.6563ZM86.8906 54.8C80.064 54.8 75.0773 53.2 71.9306 50C68.8373 46.7467 67.2906 41.68 67.2906 34.8C67.2906 28.72 68.6506 23.9467 71.3706 20.48C74.144 17.0133 78.624 15.28 84.8106 15.28C88.4906 15.28 91.4773 15.9733 93.7706 17.36C96.064 18.6933 97.744 20.5067 98.8106 22.8C99.9306 25.0933 100.491 27.6533 100.491 30.48V37.36H71.6906C71.904 42.2667 73.184 45.8133 75.5306 48C77.8773 50.1333 81.9573 51.2 87.7706 51.2C91.2906 51.2 94.704 50.5333 98.0106 49.2V52.8C94.7573 54.1333 91.0506 54.8 86.8906 54.8ZM71.6906 33.92H96.4906V30.32C96.4906 26.8 95.584 24.0267 93.7706 22C91.9573 19.9733 88.9973 18.96 84.8906 18.96C79.8773 18.96 76.4106 20.2667 74.4906 22.88C72.624 25.44 71.6906 29.12 71.6906 33.92ZM128.922 54.8C122.095 54.8 117.109 53.2 113.962 50C110.869 46.7467 109.322 41.68 109.322 34.8C109.322 28.72 110.682 23.9467 113.402 20.48C116.175 17.0133 120.655 15.28 126.842 15.28C130.522 15.28 133.509 15.9733 135.802 17.36C138.095 18.6933 139.775 20.5067 140.842 22.8C141.962 25.0933 142.522 27.6533 142.522 30.48V37.36H113.722C113.935 42.2667 115.215 45.8133 117.562 48C119.909 50.1333 123.989 51.2 129.802 51.2C133.322 51.2 136.735 50.5333 140.042 49.2V52.8C136.789 54.1333 133.082 54.8 128.922 54.8ZM113.722 33.92H138.522V30.32C138.522 26.8 137.615 24.0267 135.802 22C133.989 19.9733 131.029 18.96 126.922 18.96C121.909 18.96 118.442 20.2667 116.522 22.88C114.655 25.44 113.722 29.12 113.722 33.92Z" fill="#232424"/>
<path d="M235 54V2.48H240.12L258.76 40.64L277.4 2.48H282.52V54H278.2V8.88L260.52 45.04H257.08L239.32 8.88V54H235ZM306.131 54.8C303.731 54.8 301.518 54.4267 299.491 53.68C297.518 52.9333 295.918 51.76 294.691 50.16C293.518 48.5067 292.931 46.4267 292.931 43.92C292.931 40.56 293.998 37.84 296.131 35.76C298.265 33.6267 301.891 32.56 307.011 32.56H321.171V28.96C321.171 26.56 320.851 24.64 320.211 23.2C319.571 21.7067 318.398 20.64 316.691 20C315.038 19.36 312.585 19.04 309.331 19.04C307.145 19.04 305.038 19.2267 303.011 19.6C300.985 19.9733 299.065 20.48 297.251 21.12V17.36C298.905 16.72 300.825 16.2133 303.011 15.84C305.251 15.4667 307.625 15.28 310.131 15.28C315.358 15.28 319.198 16.3467 321.651 18.48C324.158 20.56 325.411 24.0267 325.411 28.88V54H321.811L321.411 49.28C319.651 51.1467 317.571 52.5333 315.171 53.44C312.771 54.3467 309.758 54.8 306.131 54.8ZM307.251 51.12C310.291 51.12 312.958 50.64 315.251 49.68C317.545 48.6667 319.518 47.1733 321.171 45.2V36.08H307.171C303.438 36.08 300.851 36.7467 299.411 38.08C297.971 39.4133 297.251 41.36 297.251 43.92C297.251 46.5333 298.131 48.4 299.891 49.52C301.705 50.5867 304.158 51.12 307.251 51.12ZM350.231 54.8C346.871 54.8 344.285 53.8667 342.471 52C340.658 50.1333 339.751 47.52 339.751 44.16V19.76H333.831V16.08H339.751V6.16L344.151 4.72V16.08H355.111L354.871 19.76H344.151V44C344.151 46.4533 344.711 48.2667 345.831 49.44C347.005 50.6133 348.898 51.2 351.511 51.2C352.205 51.2 352.925 51.1467 353.671 51.04C354.471 50.88 355.325 50.64 356.231 50.32V53.84C354.471 54.48 352.471 54.8 350.231 54.8ZM381.809 54.8C375.249 54.8 370.476 53.0667 367.489 49.6C364.503 46.1333 363.009 41.28 363.009 35.04C363.009 28.3733 364.743 23.4133 368.209 20.16C371.729 16.9067 376.476 15.28 382.449 15.28C384.903 15.28 386.876 15.4667 388.369 15.84C389.863 16.16 391.329 16.6667 392.769 17.36V20.96C389.943 19.6267 386.743 18.96 383.169 18.96C378.156 18.96 374.263 20.24 371.489 22.8C368.716 25.36 367.329 29.44 367.329 35.04C367.329 40.5333 368.503 44.6133 370.849 47.28C373.249 49.8933 377.249 51.2 382.849 51.2C384.556 51.2 386.263 51.0133 387.969 50.64C389.729 50.2667 391.356 49.76 392.849 49.12V52.8C391.356 53.44 389.676 53.92 387.809 54.24C385.996 54.6133 383.996 54.8 381.809 54.8ZM400.625 54V0.079998H405.025V20.64C406.892 19.04 409.025 17.76 411.425 16.8C413.878 15.7867 416.812 15.28 420.225 15.28C424.812 15.28 428.198 16.3733 430.385 18.56C432.625 20.7467 433.745 24.2133 433.745 28.96V54H429.345V29.04C429.345 25.3067 428.545 22.6933 426.945 21.2C425.398 19.7067 422.598 18.96 418.545 18.96C415.932 18.96 413.452 19.4933 411.105 20.56C408.758 21.5733 406.732 22.9067 405.025 24.56V54H400.625Z" fill="#232424"/>
<g clip-path="url(#clip0_147_11)">
<mask id="mask0_147_11" style="mask-type:luminance" maskUnits="userSpaceOnUse" x="158" y="1" width="244" height="56">
<path d="M401.665 1.47363H158V56.5263H401.665V1.47363Z" fill="white"/>
</mask>
<g mask="url(#mask0_147_11)">
<mask id="mask1_147_11" style="mask-type:luminance" maskUnits="userSpaceOnUse" x="158" y="1" width="244" height="56">
<path d="M401.624 1.47363H158.043V56.5263H401.624V1.47363Z" fill="white"/>
</mask>
<g mask="url(#mask1_147_11)">
<path d="M216.21 28.5792L202.394 1.97886L196.981 12.4006L208.054 33.732C209.371 36.2703 209.373 39.2966 208.054 41.8323C207.407 43.0769 206.489 44.1045 205.398 44.8044C204.305 45.5067 203.042 45.8764 201.743 45.8764L190.087 45.8813L196.09 34.326L190.841 24.2172L196.981 12.3981L191.306 1.47365H174.698C171.749 1.46872 168.87 2.31645 166.369 3.92075C163.871 5.52258 161.774 7.86866 160.3 10.7027C157.291 16.4914 157.291 23.4014 160.297 29.1902L174.112 55.7907L179.526 45.3687L168.453 24.0372C167.136 21.499 167.134 18.4727 168.453 15.9394C169.1 14.6949 170.018 13.6673 171.109 12.9674C172.202 12.2651 173.465 11.8954 174.764 11.8954L186.42 11.8905L180.417 23.4458L185.666 33.5546L179.526 45.3737L185.201 56.3005H201.809C204.758 56.3056 207.637 55.4577 210.138 53.8535C212.636 52.2516 214.733 49.9056 216.207 47.0716C219.216 41.2828 219.216 34.3728 216.21 28.584V28.5792Z" fill="#FA460F"/>
</g>
</g>
</g>
<defs>
<clipPath id="clip0_147_11">
<rect width="61" height="57" fill="white" transform="translate(158 1)"/>
</clipPath>
</defs>
</svg>
