<svg width="152" height="31" viewBox="0 0 152 31" fill="none" xmlns="http://www.w3.org/2000/svg">
<g clip-path="url(#clip0_53_140)">
<g clip-path="url(#clip1_53_140)">
<path d="M48.3877 8.57095H42.5894V5.43086H57.6596V8.57095H51.8904V24.7759H48.3877V8.57095Z" fill="#111827"/>
<path d="M55.5562 17.6264C55.5562 13.3654 58.9996 10.141 63.5616 10.141C68.1236 10.141 71.5974 13.3654 71.5974 17.6541C71.5974 18.0466 71.5685 18.4668 71.5089 18.8316H59.0881C59.5885 20.9062 61.3545 22.28 63.7097 22.28C65.4465 22.28 66.9469 21.5516 67.7129 20.457H71.3623C70.1551 23.2322 67.2124 25.1105 63.6501 25.1105C58.9996 25.1105 55.5562 21.8861 55.5562 17.6251V17.6264ZM59.117 16.2526H68.0655C67.565 14.2901 65.7991 12.9729 63.5616 12.9729C61.3241 12.9729 59.6467 14.2624 59.117 16.2526Z" fill="#111827"/>
<path d="M73.303 17.6264C73.303 13.3654 76.7464 10.141 81.3388 10.141C85.2537 10.141 88.3445 12.4961 88.9624 15.8601H85.4597C84.9301 14.2624 83.3107 13.1692 81.3388 13.1692C78.6894 13.1692 76.6883 15.1041 76.6883 17.6264C76.6883 20.1488 78.6894 22.0837 81.3388 22.0837C83.3107 22.0837 84.9301 20.9904 85.4597 19.3927H88.9624C88.3445 22.7568 85.2537 25.1117 81.3388 25.1117C76.7478 25.1117 73.303 21.8874 73.303 17.6264Z" fill="#111827"/>
<path d="M90.7864 4.59153H94.0829V12.3851C95.2903 10.927 97.0271 10.142 99.1456 10.142C102.707 10.142 105.092 12.3851 105.092 15.7768V24.7769H101.795V16.8148C101.795 14.6283 100.324 13.1702 98.0574 13.1702C95.6733 13.1702 94.0829 14.6559 94.0829 16.8714V24.7769H90.7864V4.59153Z" fill="#111827"/>
<path d="M107.749 4.58292H111.032V24.775H107.749V4.58292Z" fill="#111827"/>
<path d="M113.831 10.4769H117.128V12.2999C118.335 10.8984 120.071 10.141 122.191 10.141C125.752 10.141 128.137 12.3841 128.137 15.7758V24.7759H124.84V16.8137C124.84 14.6273 123.369 13.1692 121.103 13.1692C118.718 13.1692 117.13 14.6549 117.13 16.8704V24.7759H113.833V10.4782L113.831 10.4769Z" fill="#111827"/>
<path d="M129.784 20.5706H133.14C133.14 21.6639 134.23 22.3923 135.819 22.3923C137.29 22.3923 138.263 21.7469 138.263 20.8499C138.263 18.2709 130.021 19.7 130.021 14.6263C130.021 11.8511 132.345 10.1401 135.672 10.1401C139 10.1401 141.382 11.9064 141.382 14.4854H138.026C138.026 13.5041 137.055 12.831 135.642 12.831C134.229 12.831 133.346 13.4198 133.346 14.2891C133.346 16.7838 141.617 15.41 141.617 20.5127C141.617 23.2879 139.291 25.1108 135.79 25.1108C132.289 25.1108 129.786 23.2603 129.786 20.5693L129.784 20.5706Z" fill="#111827"/>
<path d="M143.054 14.0383C143.054 12.8041 143.732 11.7952 144.908 11.2064C143.907 10.6453 143.32 9.74834 143.32 8.62743C143.32 6.74917 145.057 5.43201 147.499 5.43201C149.941 5.43201 151.708 6.74917 151.708 8.62743C151.708 9.74834 151.09 10.6466 150.119 11.2064C151.267 11.7952 151.973 12.8041 151.973 14.0383C151.973 16.0285 150.119 17.43 147.5 17.43C144.881 17.43 143.055 16.0285 143.055 14.0383H143.054ZM149.648 13.7854C149.648 12.8608 148.735 12.1877 147.499 12.1877C146.262 12.1877 145.35 12.8608 145.35 13.7854C145.35 14.71 146.262 15.3831 147.499 15.3831C148.735 15.3831 149.648 14.71 149.648 13.7854ZM149.442 8.87901C149.442 8.06634 148.588 7.44989 147.499 7.44989C146.409 7.44989 145.556 8.06634 145.556 8.87901C145.556 9.69169 146.409 10.3371 147.499 10.3371C148.588 10.3371 149.442 9.69169 149.442 8.87901Z" fill="#FF4D22"/>
<path d="M36.3111 15.2751L27.693 1.0577L24.3162 6.62793L31.2235 18.0292C32.045 19.3859 32.0462 21.0034 31.2235 22.3587C30.8198 23.0239 30.2472 23.5731 29.5668 23.9472C28.885 24.3226 28.0968 24.5202 27.2864 24.5202L20.0154 24.5228L23.7602 18.3467L20.4856 12.9437L24.3162 6.62663L20.776 0.787678H10.4156C8.5764 0.785043 6.78008 1.23814 5.22021 2.09561C3.66174 2.95176 2.35355 4.2057 1.43394 5.72042C-0.442595 8.81443 -0.442595 12.5077 1.43256 15.6017L10.0505 29.8192L13.4275 24.2488L6.5201 12.8475C5.69867 11.4909 5.6973 9.8734 6.5201 8.51938C6.92389 7.85422 7.4964 7.30496 8.17676 6.93089C8.85852 6.5555 9.64674 6.35792 10.4571 6.35792L17.7282 6.3553L13.9834 12.5314L17.258 17.9344L13.4275 24.2515L16.9676 30.0917H27.3279C29.1672 30.0944 30.9635 29.6412 32.5235 28.7838C34.0818 27.9276 35.39 26.6737 36.3096 25.159C38.1863 22.065 38.1863 18.3717 36.3111 15.2777V15.2751Z" fill="#FF4D22"/>
</g>
</g>
<defs>
<clipPath id="clip0_53_140">
<rect width="152" height="29.4247" fill="white" transform="translate(0 0.787666)"/>
</clipPath>
<clipPath id="clip1_53_140">
<rect width="151.947" height="29.4247" fill="white" transform="translate(0.0263672 0.787666)"/>
</clipPath>
</defs>
</svg>
