<svg width="3886" height="786" viewBox="0 0 3886 786" fill="none" xmlns="http://www.w3.org/2000/svg">
	<path d="M1236.51 208.785H1088.26V124.564H1473.59V208.785H1326.07V643.418H1236.51V208.785Z" fill="white" />
	<path d="M1419.81 451.66C1419.81 337.376 1507.85 250.895 1624.49 250.895C1741.13 250.895 1829.95 337.376 1829.95 452.402C1829.95 462.93 1829.21 474.199 1827.69 483.985H1510.11C1522.91 539.626 1568.06 576.472 1628.27 576.472C1672.68 576.472 1711.05 556.936 1730.63 527.579H1823.94C1793.07 602.014 1717.83 652.391 1626.75 652.391C1507.85 652.391 1419.81 565.909 1419.81 451.625V451.66ZM1510.85 414.814H1739.65C1726.85 362.176 1681.7 326.849 1624.49 326.849C1567.28 326.849 1524.39 361.434 1510.85 414.814Z" fill="white" />
	<path d="M1873.55 451.66C1873.55 337.376 1961.59 250.895 2079.01 250.895C2179.11 250.895 2258.13 314.06 2273.94 404.286H2184.38C2170.83 361.434 2129.43 332.112 2079.01 332.112C2011.27 332.112 1960.1 384.008 1960.1 451.66C1960.1 519.312 2011.27 571.208 2079.01 571.208C2129.43 571.208 2170.83 541.887 2184.38 499.034H2273.94C2258.13 589.261 2179.11 652.426 2079.01 652.426C1961.62 652.426 1873.55 565.945 1873.55 451.66Z" fill="white" />
	<path d="M2320.57 102.025H2404.86V311.058C2435.73 271.95 2480.14 250.895 2534.31 250.895C2625.35 250.895 2686.34 311.058 2686.34 402.026V643.418H2602.05V429.864C2602.05 371.22 2564.43 332.113 2506.48 332.113C2445.53 332.113 2404.86 371.962 2404.86 431.383V643.418H2320.57V102.025Z" fill="white" />
	<path d="M2754.27 101.809H2838.2V643.382H2754.27V101.809Z" fill="white" />
	<path d="M2909.8 259.903H2994.09V308.796C3024.96 271.208 3069.34 250.895 3123.54 250.895C3214.58 250.895 3275.58 311.057 3275.58 402.025V643.418H3191.28V429.863C3191.28 371.22 3153.66 332.112 3095.71 332.112C3034.76 332.112 2994.13 371.962 2994.13 431.382V643.418H2909.84V259.938L2909.8 259.903Z" fill="white" />
	<path d="M3317.69 530.617H3403.5C3403.5 559.939 3431.36 579.475 3471.99 579.475C3509.61 579.475 3534.46 562.165 3534.46 538.107C3534.46 468.936 3323.73 507.266 3323.73 371.185C3323.73 296.75 3383.17 250.859 3468.24 250.859C3553.31 250.859 3614.23 298.233 3614.23 367.405H3528.42C3528.42 341.086 3503.59 323.033 3467.46 323.033C3431.32 323.033 3408.77 338.825 3408.77 362.141C3408.77 429.051 3620.24 392.204 3620.24 529.063C3620.24 603.498 3560.77 652.391 3471.24 652.391C3381.72 652.391 3317.72 602.756 3317.72 530.582L3317.69 530.617Z" fill="white" />
	<path d="M3656.98 355.404C3656.98 322.302 3674.3 295.241 3704.39 279.45C3678.79 264.4 3663.76 240.342 3663.76 210.279C3663.76 159.902 3708.17 124.574 3770.62 124.574C3833.06 124.574 3878.24 159.902 3878.24 210.279C3878.24 240.342 3862.44 264.435 3837.62 279.45C3866.96 295.241 3885.03 322.302 3885.03 355.404C3885.03 408.783 3837.62 446.372 3770.65 446.372C3703.68 446.372 3657.01 408.783 3657.01 355.404H3656.98ZM3825.56 348.621C3825.56 323.821 3802.22 305.769 3770.62 305.769C3739.01 305.769 3715.67 323.821 3715.67 348.621C3715.67 373.421 3739.01 391.473 3770.62 391.473C3802.22 391.473 3825.56 373.421 3825.56 348.621ZM3820.29 217.026C3820.29 195.229 3798.48 178.696 3770.62 178.696C3742.75 178.696 3720.94 195.229 3720.94 217.026C3720.94 238.823 3742.75 256.134 3770.62 256.134C3798.48 256.134 3820.29 238.823 3820.29 217.026Z" fill="white" />
	<path d="M927.738 388.567L707.391 7.24243L621.048 156.642L797.658 462.436C818.661 498.824 818.696 542.206 797.658 578.558C787.334 596.398 772.696 611.129 755.3 621.162C737.869 631.231 717.715 636.53 696.996 636.53L511.087 636.601L606.835 470.95L523.108 326.037L621.048 156.607L530.533 0.00030634H265.636C218.61 -0.0703485 172.681 12.0823 132.798 35.0804C92.9502 58.0433 59.5021 91.675 35.9894 132.302C-11.9906 215.286 -11.9906 314.344 35.9541 397.328L256.301 778.652L342.644 629.253L166.034 323.458C145.032 287.071 144.996 243.689 166.034 207.372C176.358 189.532 190.996 174.8 208.392 164.767C225.823 154.699 245.977 149.4 266.696 149.4L452.606 149.329L356.858 314.98L440.584 459.893L342.644 629.323L433.159 785.965H698.057C745.082 786.036 791.011 773.883 830.894 750.885C870.742 727.922 904.19 694.29 927.703 653.664C975.683 570.68 975.683 471.621 927.738 388.637V388.567Z" fill="white" />
	<defs>
		<linearGradient id="paint0_linear_46_7" x1="3656.98" y1="285.473" x2="3885.03" y2="285.473" gradientUnits="userSpaceOnUse">
			<stop stop-color="white" />
			<stop offset="1" stop-color="white" />
		</linearGradient>
		<linearGradient id="paint1_linear_46_7" x1="0" y1="392.983" x2="963.692" y2="392.983" gradientUnits="userSpaceOnUse">
			<stop stop-color="white" />
			<stop offset="1" stop-color="white" />
		</linearGradient>
	</defs>
</svg>
