<svg width="443" height="58" viewBox="0 0 443 58" fill="none" xmlns="http://www.w3.org/2000/svg">
<path d="M4.977 54V3.124H39.579V9.839H13.588V25.244H36.656V31.88H13.588V54H4.977ZM43.6284 54V16.554H51.5284L52.0024 20.899C53.793 19.7403 55.926 18.687 58.4014 17.739C60.8767 16.791 63.3257 16.1327 65.7484 15.764V22.321C64.2737 22.5843 62.6674 22.9793 60.9294 23.506C59.244 23.98 57.6377 24.533 56.1104 25.165C54.583 25.7443 53.2927 26.35 52.2394 26.982V54H43.6284ZM89.436 54.79C82.9054 54.79 77.8494 53.1837 74.268 49.971C70.6867 46.7583 68.896 41.834 68.896 35.198C68.896 29.194 70.4234 24.454 73.478 20.978C76.5327 17.502 81.1674 15.764 87.382 15.764C93.07 15.764 97.336 17.265 100.18 20.267C103.077 23.2163 104.525 27.0347 104.525 31.722V38.674H77.112C77.5334 42.308 78.85 44.8097 81.062 46.179C83.274 47.5483 86.6447 48.233 91.174 48.233C93.07 48.233 95.0187 48.0487 97.02 47.68C99.0214 47.3113 100.759 46.8373 102.234 46.258V52.578C100.549 53.3153 98.6 53.8683 96.388 54.237C94.2287 54.6057 91.9114 54.79 89.436 54.79ZM77.112 33.065H96.941V30.458C96.941 27.8773 96.23 25.876 94.808 24.454C93.386 22.9793 90.9897 22.242 87.619 22.242C83.6164 22.242 80.8514 23.111 79.324 24.849C77.8494 26.587 77.112 29.3257 77.112 33.065ZM131.868 54.79C125.337 54.79 120.281 53.1837 116.7 49.971C113.118 46.7583 111.328 41.834 111.328 35.198C111.328 29.194 112.855 24.454 115.91 20.978C118.964 17.502 123.599 15.764 129.814 15.764C135.502 15.764 139.768 17.265 142.612 20.267C145.508 23.2163 146.957 27.0347 146.957 31.722V38.674H119.544C119.965 42.308 121.282 44.8097 123.494 46.179C125.706 47.5483 129.076 48.233 133.606 48.233C135.502 48.233 137.45 48.0487 139.452 47.68C141.453 47.3113 143.191 46.8373 144.666 46.258V52.578C142.98 53.3153 141.032 53.8683 138.82 54.237C136.66 54.6057 134.343 54.79 131.868 54.79ZM119.544 33.065H139.373V30.458C139.373 27.8773 138.662 25.876 137.24 24.454C135.818 22.9793 133.421 22.242 130.051 22.242C126.048 22.242 123.283 23.111 121.756 24.849C120.281 26.587 119.544 29.3257 119.544 33.065Z" fill="#232424"/>
<path d="M229.977 54V3.124H238.825L254.941 36.067L270.978 3.124H279.826V54H271.294V17.107L257.548 45.231H252.334L238.509 17.107V54H229.977ZM301.459 54.79C299.089 54.79 296.877 54.3687 294.823 53.526C292.822 52.6833 291.215 51.4193 290.004 49.734C288.793 47.996 288.187 45.863 288.187 43.335C288.187 39.7537 289.398 36.8833 291.821 34.724C294.296 32.512 298.088 31.406 303.197 31.406H315.205V29.747C315.205 27.9563 314.915 26.5343 314.336 25.481C313.809 24.4277 312.809 23.664 311.334 23.19C309.912 22.716 307.805 22.479 305.014 22.479C300.59 22.479 296.456 23.1373 292.611 24.454V18.055C294.296 17.3703 296.35 16.8173 298.773 16.396C301.196 15.9747 303.803 15.764 306.594 15.764C312.071 15.764 316.232 16.87 319.076 19.082C321.973 21.294 323.421 24.9017 323.421 29.905V54H316.074L315.521 50.208C313.994 51.6827 312.098 52.815 309.833 53.605C307.621 54.395 304.83 54.79 301.459 54.79ZM303.75 48.628C306.331 48.628 308.569 48.2067 310.465 47.364C312.414 46.4687 313.994 45.2837 315.205 43.809V37.252H303.355C300.827 37.252 298.984 37.7523 297.825 38.753C296.719 39.701 296.166 41.1757 296.166 43.177C296.166 45.1257 296.824 46.5213 298.141 47.364C299.458 48.2067 301.327 48.628 303.75 48.628ZM347.269 54.79C343.266 54.79 340.264 53.7367 338.263 51.63C336.314 49.4707 335.34 46.5477 335.34 42.861V23.269H329.81V16.554H335.34V7.943L343.872 5.336V16.554H353.826L353.273 23.269H343.872V42.387C343.872 44.5463 344.372 46.0737 345.373 46.969C346.374 47.8117 348.006 48.233 350.271 48.233C351.693 48.233 353.194 47.9697 354.774 47.443V53.526C352.72 54.3687 350.218 54.79 347.269 54.79ZM379.768 54.79C373.184 54.79 368.207 53.131 364.837 49.813C361.466 46.4423 359.781 41.597 359.781 35.277C359.781 28.6937 361.624 23.7957 365.311 20.583C369.05 17.3703 374.027 15.764 380.242 15.764C382.822 15.764 384.982 15.9483 386.72 16.317C388.51 16.6857 390.222 17.265 391.855 18.055V24.454C389.116 23.0847 385.798 22.4 381.901 22.4C377.582 22.4 374.264 23.3743 371.947 25.323C369.629 27.219 368.471 30.537 368.471 35.277C368.471 39.7537 369.498 43.0453 371.552 45.152C373.606 47.206 377.003 48.233 381.743 48.233C385.482 48.233 388.879 47.522 391.934 46.1V52.657C390.196 53.3417 388.326 53.8683 386.325 54.237C384.376 54.6057 382.19 54.79 379.768 54.79ZM398.778 54V0.753998H407.389V20.188C409.021 18.8713 410.97 17.818 413.235 17.028C415.499 16.1853 418.054 15.764 420.898 15.764C425.638 15.764 429.14 16.8963 431.405 19.161C433.669 21.4257 434.802 24.9543 434.802 29.747V54H426.27V30.142C426.27 27.2453 425.638 25.2177 424.374 24.059C423.162 22.9003 421.029 22.321 417.975 22.321C416.079 22.321 414.156 22.7423 412.208 23.585C410.259 24.375 408.653 25.4283 407.389 26.745V54H398.778Z" fill="#232424"/>
<g clip-path="url(#clip0_147_11)">
<mask id="mask0_147_11" style="mask-type:luminance" maskUnits="userSpaceOnUse" x="159" y="1" width="244" height="56">
<path d="M402.665 1.47363H159V56.5263H402.665V1.47363Z" fill="white"/>
</mask>
<g mask="url(#mask0_147_11)">
<mask id="mask1_147_11" style="mask-type:luminance" maskUnits="userSpaceOnUse" x="159" y="1" width="244" height="56">
<path d="M402.624 1.47363H159.043V56.5263H402.624V1.47363Z" fill="white"/>
</mask>
<g mask="url(#mask1_147_11)">
<path d="M217.21 28.5792L203.394 1.97886L197.981 12.4006L209.054 33.732C210.371 36.2703 210.373 39.2966 209.054 41.8323C208.407 43.0769 207.489 44.1045 206.398 44.8044C205.305 45.5067 204.042 45.8764 202.743 45.8764L191.087 45.8813L197.09 34.326L191.841 24.2172L197.981 12.3981L192.306 1.47365H175.698C172.749 1.46872 169.87 2.31645 167.369 3.92075C164.871 5.52258 162.774 7.86866 161.3 10.7027C158.291 16.4914 158.291 23.4014 161.297 29.1902L175.112 55.7907L180.526 45.3687L169.453 24.0372C168.136 21.499 168.134 18.4727 169.453 15.9394C170.1 14.6949 171.018 13.6673 172.109 12.9674C173.202 12.2651 174.465 11.8954 175.764 11.8954L187.42 11.8905L181.417 23.4458L186.666 33.5546L180.526 45.3737L186.201 56.3005H202.809C205.758 56.3056 208.637 55.4577 211.138 53.8535C213.636 52.2516 215.733 49.9056 217.207 47.0716C220.216 41.2828 220.216 34.3728 217.21 28.584V28.5792Z" fill="#FA460F"/>
</g>
</g>
</g>
<defs>
<clipPath id="clip0_147_11">
<rect width="61" height="57" fill="white" transform="translate(159 1)"/>
</clipPath>
</defs>
</svg>
