<svg width="32" height="32" viewBox="0 0 32 32" fill="none" xmlns="http://www.w3.org/2000/svg">
<path d="M28.918 15.3708L22.2872 4.21194L19.6889 8.58388L25.0036 17.5325C25.6356 18.5973 25.6367 19.8668 25.0036 20.9306C24.6929 21.4526 24.2524 21.8837 23.7289 22.1773C23.2044 22.4719 22.5979 22.627 21.9744 22.627L16.3799 22.6291L19.2612 17.7816L16.7417 13.5409L19.6889 8.58284L16.9651 4.00001H8.99367C7.57855 3.99794 6.19642 4.35357 4.99624 5.02657C3.79711 5.69854 2.79057 6.68272 2.08301 7.87159C0.639173 10.3 0.639172 13.1988 2.08195 15.6272L8.71277 26.786L11.311 22.4141L5.99639 13.4655C5.36438 12.4007 5.36331 11.1312 5.99639 10.0684C6.30708 9.54635 6.74757 9.11525 7.27106 8.82165C7.79561 8.52702 8.40208 8.37195 9.02559 8.37195L14.6201 8.36988L11.7388 13.2174L14.2583 17.458L11.311 22.4161L14.0349 27H22.0063C23.4214 27.0021 24.8036 26.6464 26.0038 25.9734C27.2029 25.3015 28.2094 24.3173 28.917 23.1284C30.3608 20.7 30.3608 17.8012 28.918 15.3728V15.3708Z" fill="url(#paint0_linear_274_134)"/>
<defs>
<linearGradient id="paint0_linear_274_134" x1="1" y1="15.5" x2="30" y2="15.5" gradientUnits="userSpaceOnUse">
<stop stop-color="#FA4810"/>
<stop offset="1" stop-color="#F57F59"/>
</linearGradient>
</defs>
</svg>
