<svg width="38" height="31" viewBox="0 0 38 31" fill="none" xmlns="http://www.w3.org/2000/svg">
<path d="M36.3111 15.2751L27.693 1.0577L24.3162 6.62793L31.2235 18.0292C32.045 19.3859 32.0462 21.0034 31.2235 22.3587C30.8198 23.0239 30.2472 23.5731 29.5668 23.9472C28.885 24.3226 28.0968 24.5202 27.2864 24.5202L20.0154 24.5228L23.7602 18.3467L20.4856 12.9437L24.3162 6.62663L20.776 0.787678H10.4156C8.5764 0.785043 6.78008 1.23814 5.22021 2.09561C3.66174 2.95176 2.35355 4.2057 1.43394 5.72042C-0.442595 8.81443 -0.442595 12.5077 1.43256 15.6017L10.0505 29.8192L13.4275 24.2488L6.5201 12.8475C5.69867 11.4909 5.6973 9.8734 6.5201 8.51938C6.92389 7.85422 7.4964 7.30496 8.17676 6.93089C8.85852 6.5555 9.64674 6.35792 10.4571 6.35792L17.7282 6.3553L13.9834 12.5314L17.258 17.9344L13.4275 24.2515L16.9676 30.0917H27.3279C29.1672 30.0944 30.9635 29.6412 32.5235 28.7838C34.0818 27.9276 35.39 26.6737 36.3096 25.159C38.1863 22.065 38.1863 18.3717 36.3111 15.2777V15.2751Z" fill="#FF4D22"/>
</svg>
