<?xml version="1.0" encoding="UTF-8"?>
<svg width="24" height="24" viewBox="0 0 24 24" fill="none" xmlns="http://www.w3.org/2000/svg">
  <path d="M12 2V4M12 20V22M5 12H2M22 12H19M7 5L5.5 3.5M17 19L18.5 20.5M17 5L18.5 3.5M7 19L5.5 20.5" stroke="#F57F59" stroke-width="1.5" stroke-linecap="round"/>
  <path d="M16 8C16 10.2091 14.2091 12 12 12C9.79086 12 8 10.2091 8 8C8 5.79086 9.79086 4 12 4C14.2091 4 16 5.79086 16 8Z" stroke="#F57F59" stroke-width="1.5"/>
  <path d="M16 16C16 18.2091 14.2091 20 12 20C9.79086 20 8 18.2091 8 16C8 13.7909 9.79086 12 12 12C14.2091 12 16 13.7909 16 16Z" stroke="#F57F59" stroke-width="1.5"/>
  <path d="M12 12L12 8" stroke="#F57F59" stroke-width="1.5" stroke-linecap="round"/>
</svg>
