<?xml version="1.0" encoding="UTF-8"?>
<svg width="24" height="24" viewBox="0 0 24 24" fill="none" xmlns="http://www.w3.org/2000/svg">
  <path d="M12 13C13.6569 13 15 11.6569 15 10C15 8.34315 13.6569 7 12 7C10.3431 7 9 8.34315 9 10C9 11.6569 10.3431 13 12 13Z" stroke="#F57F59" stroke-width="1.5"/>
  <path d="M12 22C12 22 19 16 19 10C19 5.58172 15.9183 2 12 2C8.08172 2 5 5.58172 5 10C5 16 12 22 12 22Z" stroke="#F57F59" stroke-width="1.5"/>
  <path d="M16 16L20 20M20 16L16 20" stroke="#F57F59" stroke-width="1.5" stroke-linecap="round"/>
</svg>
