<?xml version="1.0" encoding="UTF-8"?>
<svg width="24" height="24" viewBox="0 0 24 24" fill="none" xmlns="http://www.w3.org/2000/svg">
  <path d="M12 2C6.47715 2 2 6.47715 2 12C2 17.5228 6.47715 22 12 22C17.5228 22 22 17.5228 22 12C22 6.47715 17.5228 2 12 2Z" stroke="#F57F59" stroke-width="1.5"/>
  <path d="M15 8.5C15 7.11929 13.6569 6 12 6C10.3431 6 9 7.11929 9 8.5C9 9.88071 10.3431 11 12 11" stroke="#F57F59" stroke-width="1.5" stroke-linecap="round"/>
  <path d="M12 11C13.6569 11 15 12.1193 15 13.5C15 14.8807 13.6569 16 12 16C10.3431 16 9 14.8807 9 13.5" stroke="#F57F59" stroke-width="1.5" stroke-linecap="round"/>
  <path d="M12 16V18M12 4V6M8 5L7 4M16 5L17 4M8 19L7 20M16 19L17 20" stroke="#F57F59" stroke-width="1.5" stroke-linecap="round"/>
</svg>
