<svg width="81" height="65" viewBox="0 0 81 65" fill="none" xmlns="http://www.w3.org/2000/svg">
<path d="M66.1108 13.9307H4.84362C2.74832 13.9307 1.0437 15.6353 1.0437 17.7305V60.2003C1.0437 62.2955 2.74832 64.0001 4.84362 64.0001H66.1108C68.2061 64.0001 69.9107 62.2955 69.9107 60.2003V17.7305C69.9107 15.6353 68.2061 13.9307 66.1108 13.9307ZM40.5676 37.8339L35.9983 41.8391C35.7012 42.0996 35.2532 42.0995 34.9561 41.8391L30.3868 37.8339L6.54744 16.9397H64.4069L40.5676 37.8339ZM27.1124 38.9654L4.0528 59.1763V18.7545L27.1124 38.9654ZM29.395 40.966L32.9726 44.1019C33.6866 44.7278 34.5818 45.0406 35.4772 45.0406C36.3725 45.0406 37.268 44.7277 37.9818 44.1019L41.5594 40.966L64.4069 60.991H6.54753L29.395 40.966ZM43.842 38.9654L66.9017 18.7545V59.1763L43.842 38.9654Z" fill="#FAFAF9" stroke="#FAFAF9"/>
<path d="M64.6643 30.8702C73.1889 30.8702 80.0994 23.9597 80.0994 15.4351C80.0994 6.91052 73.1889 0 64.6643 0C56.1398 0 49.2292 6.91052 49.2292 15.4351C49.2292 23.9597 56.1398 30.8702 64.6643 30.8702Z" fill="#111827"/>
<path d="M63.6813 23.8511V11.7186H60.0859V9.77194C62.4178 9.41144 63.1739 8.96484 64.1614 8.07764H66.2619V23.8511H63.6813Z" fill="white"/>
</svg>
