<svg width="90" height="99" viewBox="0 0 90 99" fill="none" xmlns="http://www.w3.org/2000/svg">
<path d="M79.9173 73.8141C104.573 68.0498 119.887 43.3898 114.123 18.7344C108.358 -5.921 83.6983 -21.2353 59.0429 -15.471C34.3875 -9.70666 19.0733 14.9534 24.8376 39.6088C30.6019 64.2641 55.2619 79.5784 79.9173 73.8141Z" stroke="#F57F59" stroke-width="6" stroke-linecap="round" stroke-linejoin="round"/>
<path d="M56.4336 -26.6315L66.2185 15.2208" stroke="#F57F59" stroke-width="6" stroke-linecap="round" stroke-linejoin="round"/>
<path d="M99.4097 -19.0232L77.0479 16.9851" stroke="#F57F59" stroke-width="6" stroke-linecap="round" stroke-linejoin="round"/>
<path d="M125.284 16.1252L83.4316 25.91" stroke="#F57F59" stroke-width="6" stroke-linecap="round" stroke-linejoin="round"/>
<path d="M117.676 59.1014L81.668 36.7396" stroke="#F57F59" stroke-width="6" stroke-linecap="round" stroke-linejoin="round"/>
<path d="M72.7422 43.1223L82.5271 84.9747" stroke="#F57F59" stroke-width="6" stroke-linecap="round" stroke-linejoin="round"/>
<path d="M61.9136 41.358L39.5518 77.3664" stroke="#F57F59" stroke-width="6" stroke-linecap="round" stroke-linejoin="round"/>
<path d="M55.5301 32.4332L13.6777 42.218" stroke="#F57F59" stroke-width="6" stroke-linecap="round" stroke-linejoin="round"/>
<path d="M57.2935 21.6037L21.2852 -0.758087" stroke="#F57F59" stroke-width="6" stroke-linecap="round" stroke-linejoin="round"/>
<path d="M72.7416 43.1224C80.4464 41.321 85.2321 33.6148 83.4308 25.91C81.6294 18.2052 73.9232 13.4195 66.2184 15.2208C58.5136 17.0221 53.7279 24.7284 55.5292 32.4332C57.3305 40.138 65.0368 44.9237 72.7416 43.1224Z" stroke="#F57F59" stroke-width="6" stroke-linecap="round" stroke-linejoin="round"/>
</svg>
