<svg width="74" height="65" viewBox="0 0 74 65" fill="none" xmlns="http://www.w3.org/2000/svg">
<path d="M40.5758 19.5709L35.5564 30.9412L46.0675 38.1147" stroke="#F57F59" stroke-width="6" stroke-linecap="round" stroke-linejoin="round"/>
<path d="M56.1055 15.3742L66.6166 22.5478L61.5972 33.918" stroke="#F57F59" stroke-width="6" stroke-linecap="round" stroke-linejoin="round"/>
<path d="M89.8364 44.3125C91.8958 43.7559 93.6395 42.4407 94.6838 40.6562C95.7281 38.8716 95.9875 36.7638 95.4049 34.7966L84.4214 -2.29107C83.8388 -4.25832 82.4619 -5.92393 80.5937 -6.92147C78.7255 -7.91901 76.5189 -8.16677 74.4594 -7.61026L43.7868 0.678209C42.4917 1.04131 41.122 1.08832 39.803 0.814949C38.4839 0.541578 37.2578 -0.0434462 36.2367 -0.886577L31.7737 -4.48726C30.7629 -5.32179 29.5511 -5.90354 28.2468 -6.18031C26.9426 -6.45708 25.5869 -6.42022 24.3012 -6.07303L9.04257 -1.94979C6.9831 -1.39327 5.23943 -0.0780604 4.19513 1.70651C3.15083 3.49108 2.89145 5.59884 3.47405 7.56609L17.7526 55.78C18.3352 57.7473 19.7121 59.4129 21.5803 60.4104C23.4485 61.408 25.6551 61.6557 27.7146 61.0992L89.8364 44.3125Z" stroke="#F57F59" stroke-width="6" stroke-linecap="round" stroke-linejoin="round"/>
</svg>
