<svg width="42" height="46" viewBox="0 0 42 46" fill="none" xmlns="http://www.w3.org/2000/svg">
<path d="M20.8998 25.1005V2L37.7001 10.4002L20.8998 18.8004M38.8783 19.2666C39.9958 22.711 40.1004 26.4039 39.1795 29.906C38.2586 33.408 36.3511 36.5719 33.6839 39.0211C31.0167 41.4703 27.7021 43.1017 24.1343 43.7213C20.5666 44.3409 16.896 43.9225 13.5592 42.516C10.2224 41.1095 7.35982 38.774 5.31213 35.7875C3.26443 32.8009 2.11779 29.289 2.0086 25.6695C1.89941 22.05 2.83228 18.4753 4.69622 15.3708C6.56016 12.2662 9.2767 9.76243 12.5227 8.15734M12.5038 18.7941C11.4514 20.1949 10.7664 21.8367 10.5109 23.57C10.2555 25.3033 10.4378 27.0729 11.0413 28.7177C11.6448 30.3625 12.6503 31.8302 13.9661 32.987C15.2819 34.1438 16.8663 34.9529 18.5749 35.3407C20.2834 35.7285 22.0619 35.6826 23.7481 35.2072C25.4344 34.7318 26.975 33.842 28.2294 32.6189C29.4838 31.3957 30.4122 29.8782 30.93 28.2044C31.4479 26.5307 31.5387 24.754 31.1942 23.0362" stroke="#FF4D22" stroke-width="3.88095" stroke-linecap="round" stroke-linejoin="round"/>
</svg>
