<svg width="46" height="46" viewBox="0 0 46 46" fill="none" xmlns="http://www.w3.org/2000/svg">
<path d="M2 23H8.3M8.3 23C8.3 31.1186 14.8814 37.7 23 37.7M8.3 23C8.3 14.8814 14.8814 8.3 23 8.3M37.7 23H44M37.7 23C37.7 31.1186 31.1186 37.7 23 37.7M37.7 23C37.7 14.8814 31.1186 8.3 23 8.3M23 2V8.3M23 37.7V44M29.3 23C29.3 26.4794 26.4794 29.3 23 29.3C19.5206 29.3 16.7 26.4794 16.7 23C16.7 19.5206 19.5206 16.7 23 16.7C26.4794 16.7 29.3 19.5206 29.3 23Z" stroke="#FF4D22" stroke-width="3.88095" stroke-linecap="round" stroke-linejoin="round"/>
</svg>
