
<svg width="17" height="18" viewBox="0 0 17 18" fill="none" xmlns="http://www.w3.org/2000/svg">
<rect y="0.5" width="17" height="17" rx="8.5" fill="black"/>
<path d="M4.5 5V12.1111C4.5 12.3469 4.59365 12.573 4.76035 12.7397C4.92705 12.9063 5.15314 13 5.38889 13H12.5" stroke="white" stroke-linecap="round" stroke-linejoin="round"/>
<path d="M6.27734 8.64755C6.27736 8.58873 6.30069 8.53231 6.34223 8.49066L7.23112 7.60177C7.25176 7.58108 7.27629 7.56466 7.30328 7.55346C7.33028 7.54225 7.35922 7.53649 7.38845 7.53649C7.41768 7.53649 7.44663 7.54225 7.47363 7.55346C7.50062 7.56466 7.52515 7.58108 7.54579 7.60177L9.0089 9.06488C9.02954 9.08558 9.05406 9.102 9.08106 9.1132C9.10806 9.1244 9.137 9.13017 9.16623 9.13017C9.19546 9.13017 9.22441 9.1244 9.2514 9.1132C9.2784 9.102 9.30292 9.08558 9.32357 9.06488L11.2311 7.15733C11.2622 7.1262 11.3018 7.10498 11.3449 7.09635C11.388 7.08773 11.4327 7.0921 11.4733 7.10889C11.514 7.12569 11.5487 7.15417 11.5732 7.19072C11.5976 7.22726 11.6107 7.27024 11.6107 7.31422V10.7778C11.6107 10.8956 11.5639 11.0087 11.4805 11.092C11.3972 11.1754 11.2841 11.2222 11.1662 11.2222H6.72179C6.60391 11.2222 6.49087 11.1754 6.40752 11.092C6.32417 11.0087 6.27734 10.8956 6.27734 10.7778V8.64755Z" stroke="white" stroke-linecap="round" stroke-linejoin="round"/>
</svg>
