<svg width="491" height="316" viewBox="0 0 491 316" fill="none" xmlns="http://www.w3.org/2000/svg">
<g clip-path="url(#clip0_53_617)">
<rect width="491" height="316" fill="#FAFAF9"/>
<g filter="url(#filter0_f_53_617)">
<ellipse cx="246.233" cy="158.133" rx="143.023" ry="276.812" transform="rotate(-89.8621 246.233 158.133)" fill="white" fill-opacity="0.58"/>
</g>
<rect x="67" y="41" width="358" height="234" rx="11.1798" fill="#FFDED2"/>
<rect x="411" y="59" width="58" height="330" rx="5.58989" transform="rotate(90 411 59)" fill="#FAFAF9"/>
<rect x="411" y="130" width="56" height="330" rx="5.58989" transform="rotate(90 411 130)" fill="#FAFAF9"/>
<rect x="411" y="199" width="59" height="330" rx="5.58989" transform="rotate(90 411 199)" fill="#FAFAF9"/>
<rect x="112" y="70" width="223" height="8" rx="4" fill="#D9D9D9"/>
<rect x="112" y="140" width="180" height="8" rx="4" fill="#D9D9D9"/>
<rect x="112" y="211" width="103" height="7" rx="3.5" fill="#D9D9D9"/>
<rect x="112" y="85" width="180" height="7" rx="3.5" fill="#D9D9D9"/>
<rect x="112" y="155" width="223" height="7" rx="3.5" fill="#D9D9D9"/>
<rect x="112" y="225" width="223" height="8" rx="4" fill="#D9D9D9"/>
<rect x="112" y="99" width="103" height="8" rx="4" fill="#D9D9D9"/>
<rect x="112" y="169" width="103" height="8" rx="4" fill="#D9D9D9"/>
<rect x="112" y="240" width="180" height="7" rx="3.5" fill="#D9D9D9"/>
<circle cx="379.739" cy="88.1265" r="11.7388" fill="#FF4D22"/>
<path d="M374.261 83.4308L385.217 93.6044M385.217 83.4308L374.261 93.6044" stroke="#FAFAF9" stroke-width="2.34775" stroke-linecap="round"/>
<circle cx="99.0309" cy="74.0309" r="5.0309" fill="#FF4D22"/>
<path d="M96.6833 72.0184L101.379 76.3785M101.379 72.0184L96.6833 76.3785" stroke="#FAFAF9" stroke-width="1.00618" stroke-linecap="round"/>
<circle cx="99.0309" cy="173.093" r="5.0309" fill="#FF4D22"/>
<path d="M96.6833 171.08L101.379 175.44M101.379 171.08L96.6833 175.44" stroke="#FAFAF9" stroke-width="1.00618" stroke-linecap="round"/>
<circle cx="99.0309" cy="214.458" r="5.0309" fill="#FF4D22"/>
<path d="M96.6833 212.446L101.379 216.806M101.379 212.446L96.6833 216.806" stroke="#FAFAF9" stroke-width="1.00618" stroke-linecap="round"/>
<circle cx="99.0309" cy="88.5646" r="5.0309" fill="#FF4D22"/>
<path d="M96.6833 86.5521L101.379 90.9122M101.379 86.5521L96.6833 90.9122" stroke="#FAFAF9" stroke-width="1.00618" stroke-linecap="round"/>
<circle cx="99.0309" cy="158.559" r="5.0309" fill="#FF4D22"/>
<path d="M96.6833 156.547L101.379 160.907M101.379 156.547L96.6833 160.907" stroke="#FAFAF9" stroke-width="1.00618" stroke-linecap="round"/>
<circle cx="99.0309" cy="243.526" r="5.0309" fill="#FF4D22"/>
<path d="M96.6833 241.513L101.379 245.873M101.379 241.513L96.6833 245.873" stroke="#FAFAF9" stroke-width="1.00618" stroke-linecap="round"/>
<circle cx="379.739" cy="158.559" r="11.7388" fill="#FF4D22"/>
<path d="M374.261 153.863L385.217 164.037M385.217 153.863L374.261 164.037" stroke="#FAFAF9" stroke-width="2.34775" stroke-linecap="round"/>
<circle cx="379.739" cy="228.991" r="11.7388" fill="#FF4D22"/>
<path d="M374.261 224.296L385.217 234.47M385.217 224.296L374.261 234.47" stroke="#FAFAF9" stroke-width="2.34775" stroke-linecap="round"/>
<circle cx="99.0309" cy="103.098" r="5.0309" fill="#4B5563"/>
<path d="M101.829 100.927L101.829 100.927C101.871 100.958 101.906 100.997 101.933 101.042C101.959 101.087 101.977 101.137 101.984 101.189C101.991 101.24 101.988 101.293 101.974 101.343C101.961 101.394 101.937 101.441 101.905 101.482C101.905 101.482 101.905 101.482 101.905 101.482L98.6693 105.675L98.6693 105.675C98.6347 105.719 98.5908 105.756 98.5407 105.783C98.4906 105.809 98.4353 105.825 98.3787 105.829C98.3221 105.833 98.2653 105.824 98.2121 105.804C98.1589 105.785 98.1105 105.754 98.0702 105.714M101.829 100.927L98.1376 105.646M101.829 100.927C101.745 100.864 101.639 100.836 101.535 100.85C101.43 100.864 101.335 100.919 101.271 101.002M101.829 100.927L101.271 101.002M98.0702 105.714L98.1376 105.646M98.0702 105.714L98.0703 105.714L98.1376 105.646M98.0702 105.714L96.2499 103.917L96.2475 103.915L96.2476 103.915C96.1769 103.84 96.1382 103.741 96.1401 103.638C96.1419 103.535 96.1841 103.437 96.2574 103.365C96.3306 103.293 96.4292 103.252 96.5322 103.25C96.6352 103.248 96.7352 103.286 96.8109 103.355L96.8134 103.358L96.8134 103.358L98.3115 104.836M98.1376 105.646L96.3173 103.849C96.2637 103.792 96.2345 103.717 96.2359 103.64C96.2373 103.562 96.2691 103.488 96.3247 103.433C96.3803 103.378 96.4553 103.347 96.5339 103.346C96.6125 103.344 96.6885 103.373 96.7461 103.426L98.2525 104.913L98.3115 104.836M98.3115 104.836L98.3802 104.904L101.347 101.061M98.3115 104.836L101.271 101.002L101.347 101.061M101.347 101.061L101.271 101.002M101.347 101.061L101.271 101.002" fill="#FAFAF9" stroke="#FAFAF9" stroke-width="0.191653"/>
<circle cx="99.0309" cy="144.026" r="5.0309" fill="#4B5563"/>
<path d="M101.829 141.853L101.829 141.853C101.871 141.885 101.906 141.924 101.933 141.969C101.959 142.014 101.977 142.064 101.984 142.115C101.991 142.167 101.988 142.219 101.974 142.27C101.961 142.32 101.937 142.367 101.905 142.409C101.905 142.409 101.905 142.409 101.905 142.409L98.6693 146.601L98.6693 146.601C98.6347 146.646 98.5908 146.683 98.5407 146.71C98.4906 146.736 98.4353 146.752 98.3787 146.756C98.3221 146.759 98.2653 146.751 98.2121 146.731C98.1589 146.711 98.1105 146.681 98.0702 146.641M101.829 141.853L98.1376 146.573M101.829 141.853C101.745 141.79 101.639 141.763 101.535 141.777C101.43 141.791 101.335 141.845 101.271 141.929M101.829 141.853L101.271 141.929M98.0702 146.641L98.1376 146.573M98.0702 146.641L98.0703 146.641L98.1376 146.573M98.0702 146.641L96.2499 144.844L96.2475 144.842L96.2476 144.842C96.1769 144.767 96.1382 144.668 96.1401 144.565C96.1419 144.462 96.1841 144.364 96.2574 144.292C96.3306 144.22 96.4292 144.178 96.5322 144.177C96.6352 144.175 96.7352 144.212 96.8109 144.282L96.8134 144.284L96.8134 144.284L98.3115 145.763M98.1376 146.573L96.3173 144.776C96.2637 144.719 96.2345 144.644 96.2359 144.566C96.2373 144.489 96.2691 144.415 96.3247 144.36C96.3803 144.305 96.4553 144.274 96.5339 144.272C96.6125 144.271 96.6885 144.3 96.7461 144.353L98.2525 145.839L98.3115 145.763M98.3115 145.763L98.3802 145.831L101.347 141.987M98.3115 145.763L101.271 141.929L101.347 141.987M101.347 141.987L101.271 141.929M101.347 141.987L101.271 141.929" fill="#FAFAF9" stroke="#FAFAF9" stroke-width="0.191653"/>
<circle cx="99.0309" cy="228.992" r="5.0309" fill="#4B5563"/>
<path d="M101.829 226.82L101.829 226.82C101.871 226.851 101.906 226.89 101.933 226.935C101.959 226.98 101.977 227.03 101.984 227.082C101.991 227.133 101.988 227.186 101.974 227.236C101.961 227.287 101.937 227.334 101.905 227.375C101.905 227.375 101.905 227.375 101.905 227.375L98.6693 231.568L98.6693 231.568C98.6347 231.613 98.5908 231.649 98.5407 231.676C98.4906 231.703 98.4353 231.718 98.3787 231.722C98.3221 231.726 98.2653 231.717 98.2121 231.698C98.1589 231.678 98.1105 231.647 98.0702 231.607M101.829 226.82L98.1376 231.539M101.829 226.82C101.745 226.757 101.639 226.729 101.535 226.743C101.43 226.757 101.335 226.812 101.271 226.895M101.829 226.82L101.271 226.895M98.0702 231.607L98.1376 231.539M98.0702 231.607L98.0703 231.607L98.1376 231.539M98.0702 231.607L96.2499 229.81L96.2475 229.808L96.2476 229.808C96.1769 229.733 96.1382 229.634 96.1401 229.531C96.1419 229.428 96.1841 229.33 96.2574 229.258C96.3306 229.186 96.4292 229.145 96.5322 229.143C96.6352 229.141 96.7352 229.179 96.8109 229.248L96.8134 229.251L96.8134 229.251L98.3115 230.729M98.1376 231.539L96.3173 229.742C96.2637 229.685 96.2345 229.61 96.2359 229.533C96.2373 229.455 96.2691 229.381 96.3247 229.326C96.3803 229.271 96.4553 229.24 96.5339 229.239C96.6125 229.237 96.6885 229.266 96.7461 229.319L98.2525 230.806L98.3115 230.729M98.3115 230.729L98.3802 230.797L101.347 226.954M98.3115 230.729L101.271 226.895L101.347 226.954M101.347 226.954L101.271 226.895M101.347 226.954L101.271 226.895" fill="#FAFAF9" stroke="#FAFAF9" stroke-width="0.191653"/>
</g>
<defs>
<filter id="filter0_f_53_617" x="-161.685" y="-115.997" width="815.835" height="548.26" filterUnits="userSpaceOnUse" color-interpolation-filters="sRGB">
<feFlood flood-opacity="0" result="BackgroundImageFix"/>
<feBlend mode="normal" in="SourceGraphic" in2="BackgroundImageFix" result="shape"/>
<feGaussianBlur stdDeviation="65.5528" result="effect1_foregroundBlur_53_617"/>
</filter>
<clipPath id="clip0_53_617">
<rect width="491" height="316" fill="white"/>
</clipPath>
</defs>
</svg>
