<svg width="491" height="211" viewBox="0 0 491 211" fill="none" xmlns="http://www.w3.org/2000/svg">
<g clip-path="url(#clip0_53_585)">
<rect width="491" height="211" fill="#FAFAF9"/>
<g filter="url(#filter0_f_53_585)">
<ellipse cx="246.233" cy="106.133" rx="171.18" ry="207.378" transform="rotate(-89.8621 246.233 106.133)" fill="white" fill-opacity="0.58"/>
</g>
<ellipse cx="71.4607" cy="120.782" rx="20.4607" ry="21.0453" fill="#F57E56"/>
<circle cx="129.335" cy="120.782" r="21.0453" fill="#F57E56"/>
<ellipse cx="187.21" cy="120.782" rx="20.4607" ry="21.0453" fill="#FFDED2"/>
<ellipse cx="244.5" cy="120.782" rx="20.4607" ry="21.0453" fill="#FFDED2"/>
<ellipse cx="301.79" cy="120.782" rx="20.4607" ry="21.0453" fill="#FFDED2"/>
<circle cx="359.664" cy="120.782" r="20.1684" stroke="#F57E56" stroke-width="1.75378" stroke-linecap="square" stroke-linejoin="bevel" stroke-dasharray="2.34 8.18"/>
<path d="M436.243 112.238C437.112 114.246 437.683 116.42 437.901 118.7L437.043 118.747L437.091 119.623C437.112 120.007 437.123 120.393 437.123 120.782C437.123 121.172 437.112 121.558 437.091 121.942L437.043 122.817L437.901 122.865C437.683 125.145 437.112 127.319 436.243 129.327L435.47 128.954L435.089 129.743C434.752 130.442 434.377 131.117 433.967 131.767L433.498 132.508L434.224 132.967C432.946 134.815 431.385 136.441 429.607 137.78L429.12 137.072L428.398 137.569C427.764 138.005 427.104 138.404 426.421 138.763L425.644 139.17L426.043 139.93C424.053 140.866 421.892 141.484 419.621 141.72L419.57 140.864L418.694 140.916C418.312 140.939 417.927 140.951 417.539 140.951C417.151 140.951 416.766 140.939 416.384 140.916L415.509 140.864L415.458 141.72C413.187 141.484 411.026 140.866 409.036 139.93L409.434 139.17L408.658 138.763C407.975 138.404 407.315 138.005 406.681 137.569L405.958 137.072L405.472 137.78C403.693 136.441 402.132 134.815 400.855 132.967L401.58 132.508L401.112 131.767C400.702 131.117 400.327 130.442 399.99 129.743L399.609 128.954L398.835 129.327C397.967 127.319 397.395 125.145 397.177 122.865L398.035 122.817L397.987 121.942C397.966 121.558 397.956 121.172 397.956 120.782C397.956 120.393 397.966 120.007 397.987 119.623L398.035 118.747L397.177 118.7C397.395 116.42 397.967 114.246 398.835 112.238L399.609 112.611L399.99 111.821C400.327 111.123 400.702 110.448 401.112 109.798L401.58 109.057L400.855 108.598C402.132 106.75 403.693 105.123 405.472 103.785L405.958 104.492L406.681 103.995C407.315 103.56 407.975 103.161 408.658 102.802L409.434 102.395L409.036 101.635C411.026 100.699 413.187 100.081 415.458 99.8446L415.509 100.701L416.384 100.648C416.766 100.626 417.151 100.614 417.539 100.614C417.927 100.614 418.312 100.626 418.694 100.648L419.57 100.701L419.621 99.8446C421.892 100.081 424.053 100.699 426.043 101.635L425.644 102.395L426.421 102.802C427.104 103.161 427.764 103.56 428.398 103.995L429.12 104.492L429.607 103.785C431.385 105.123 432.946 106.75 434.224 108.598L433.498 109.057L433.967 109.798C434.377 110.448 434.752 111.123 435.089 111.821L435.47 112.611L436.243 112.238Z" stroke="#F57E56" stroke-width="1.75378" stroke-linecap="square" stroke-linejoin="bevel" stroke-dasharray="2.34 8.18"/>
<path d="M71.2205 80.4044H76.5988V83H67.9468V66.6782H71.2205V80.4044Z" fill="#111827"/>
<path d="M138.706 66.6782V83H135.432V72.3838L131.059 83H128.581L124.184 72.3838V83H120.911V66.6782H124.629L129.82 78.8143L135.011 66.6782H138.706Z" fill="#111827"/>
<path d="M197.165 66.6782V83H193.891V72.3838L189.518 83H187.039L182.643 72.3838V83H179.37V66.6782H183.088L188.279 78.8143L193.47 66.6782H197.165Z" fill="#111827"/>
<path d="M249.532 66.6782V78.1362C249.532 79.7263 249.072 80.9656 248.152 81.8542C247.233 82.7272 246.001 83.1637 244.458 83.1637C242.899 83.1637 241.636 82.7116 240.67 81.8074C239.719 80.9033 239.243 79.6405 239.243 78.0193H242.517C242.532 78.7208 242.696 79.2664 243.008 79.6561C243.335 80.0459 243.803 80.2407 244.411 80.2407C245.003 80.2407 245.455 80.0537 245.767 79.6795C246.079 79.3054 246.235 78.7909 246.235 78.1362V66.6782H249.532Z" fill="#111827"/>
<path d="M309.484 66.6782L303.498 83H299.523L293.537 66.6782H297.044L301.534 79.6561L306 66.6782H309.484Z" fill="#111827"/>
<path d="M359.104 83.1637C357.966 83.1637 356.937 82.9688 356.018 82.5791C355.113 82.1894 354.396 81.6282 353.866 80.8955C353.336 80.1628 353.063 79.2976 353.048 78.2999H356.555C356.602 78.9702 356.836 79.5002 357.257 79.89C357.693 80.2797 358.286 80.4746 359.034 80.4746C359.798 80.4746 360.398 80.2953 360.835 79.9367C361.271 79.5626 361.489 79.0793 361.489 78.4869C361.489 78.0037 361.341 77.6062 361.045 77.2944C360.749 76.9826 360.375 76.741 359.923 76.5695C359.486 76.3824 358.878 76.1798 358.099 75.9615C357.039 75.6497 356.173 75.3457 355.503 75.0495C354.848 74.7378 354.279 74.2779 353.796 73.6699C353.328 73.0463 353.095 72.2201 353.095 71.1912C353.095 70.2247 353.336 69.3829 353.819 68.6658C354.303 67.9487 354.981 67.4031 355.854 67.0289C356.727 66.6392 357.725 66.4444 358.847 66.4444C360.531 66.4444 361.895 66.8575 362.939 67.6837C363.999 68.4943 364.584 69.6323 364.693 71.0977H361.092C361.061 70.5365 360.819 70.0766 360.367 69.7181C359.93 69.3439 359.346 69.1569 358.613 69.1569C357.974 69.1569 357.46 69.3205 357.07 69.6479C356.696 69.9753 356.509 70.4508 356.509 71.0743C356.509 71.5108 356.649 71.8772 356.93 72.1734C357.226 72.454 357.584 72.6878 358.005 72.8749C358.442 73.0463 359.05 73.249 359.829 73.4828C360.889 73.7946 361.754 74.1064 362.425 74.4182C363.095 74.73 363.672 75.1976 364.155 75.8212C364.638 76.4448 364.88 77.2632 364.88 78.2765C364.88 79.1495 364.654 79.9601 364.202 80.7084C363.75 81.4567 363.087 82.0569 362.214 82.5089C361.341 82.9454 360.305 83.1637 359.104 83.1637Z" fill="#111827"/>
<path d="M419.716 66.6782C421.431 66.6782 422.935 67.0134 424.229 67.6837C425.539 68.354 426.544 69.3127 427.246 70.5599C427.963 71.7914 428.321 73.2256 428.321 74.8625C428.321 76.4993 427.963 77.9335 427.246 79.1651C426.544 80.381 425.539 81.3242 424.229 81.9945C422.935 82.6648 421.431 83 419.716 83H414.011V66.6782H419.716ZM419.599 80.2173C421.314 80.2173 422.639 79.7497 423.575 78.8143C424.51 77.879 424.978 76.5617 424.978 74.8625C424.978 73.1633 424.51 71.8382 423.575 70.8873C422.639 69.9207 421.314 69.4375 419.599 69.4375H417.284V80.2173H419.599Z" fill="#111827"/>
<path d="M181.949 114.937L193.407 125.576M193.407 114.937L181.949 125.576" stroke="#FAFAF9" stroke-width="2.45529" stroke-linecap="round"/>
<path d="M239.239 114.937L250.697 125.576M250.697 114.937L239.239 125.576" stroke="#FAFAF9" stroke-width="2.45529" stroke-linecap="round"/>
<path d="M296.529 114.937L307.987 125.576M307.987 114.937L296.529 125.576" stroke="#FAFAF9" stroke-width="2.45529" stroke-linecap="round"/>
<path d="M136.192 114.897L136.192 114.897C135.984 114.744 135.723 114.677 135.466 114.711C135.209 114.745 134.975 114.877 134.815 115.08C134.815 115.08 134.815 115.08 134.815 115.08L127.47 124.441L123.749 120.829L123.749 120.829L123.743 120.823C123.556 120.654 123.309 120.562 123.056 120.567C122.802 120.571 122.559 120.671 122.378 120.847C122.196 121.023 122.091 121.262 122.087 121.514C122.082 121.766 122.179 122.009 122.354 122.191L122.353 122.191L122.359 122.197L126.875 126.582C126.975 126.679 127.094 126.753 127.225 126.801C127.356 126.849 127.496 126.869 127.636 126.86C127.775 126.851 127.911 126.813 128.035 126.749C128.158 126.684 128.267 126.595 128.353 126.485L128.353 126.485L136.38 116.255C136.46 116.154 136.518 116.038 136.551 115.915C136.585 115.792 136.593 115.663 136.575 115.536C136.558 115.41 136.514 115.288 136.448 115.178C136.382 115.069 136.295 114.973 136.192 114.897Z" fill="white" stroke="white" stroke-width="0.467674"/>
<path d="M78.9017 114.897L78.9017 114.897C78.6936 114.744 78.4326 114.677 78.1758 114.711C77.9189 114.745 77.6846 114.877 77.5254 115.08C77.5254 115.08 77.5253 115.08 77.5253 115.08L70.1799 124.441L66.4588 120.829L66.4589 120.829L66.4528 120.823C66.2655 120.654 66.019 120.562 65.7656 120.567C65.5121 120.571 65.269 120.671 65.0878 120.847C64.9064 121.023 64.8012 121.262 64.7966 121.514C64.792 121.766 64.8885 122.009 65.0635 122.191L65.0634 122.191L65.0694 122.197L69.5848 126.582C69.6846 126.679 69.8041 126.753 69.9352 126.801C70.0662 126.849 70.2061 126.869 70.3455 126.86C70.4848 126.851 70.6209 126.813 70.7445 126.749C70.8682 126.684 70.9767 126.595 71.0626 126.485L71.0627 126.485L79.0904 116.255C79.1695 116.154 79.2277 116.038 79.2612 115.915C79.2948 115.792 79.3029 115.663 79.2852 115.536C79.2675 115.41 79.2243 115.288 79.1583 115.178C79.0924 115.069 79.0051 114.973 78.9017 114.897Z" fill="white" stroke="white" stroke-width="0.467674"/>
</g>
<defs>
<filter id="filter0_f_53_585" x="-92.2497" y="-196.153" width="676.966" height="604.572" filterUnits="userSpaceOnUse" color-interpolation-filters="sRGB">
<feFlood flood-opacity="0" result="BackgroundImageFix"/>
<feBlend mode="normal" in="SourceGraphic" in2="BackgroundImageFix" result="shape"/>
<feGaussianBlur stdDeviation="65.5528" result="effect1_foregroundBlur_53_585"/>
</filter>
<clipPath id="clip0_53_585">
<rect width="491" height="211" fill="white"/>
</clipPath>
</defs>
</svg>
